<svg xmlns="http://www.w3.org/2000/svg" fill="none" viewBox="0 0 24 24" id="Unocss--Streamline-Svg-Logos" height="24" width="24">
  <desc>
    Unocss Streamline Icon: https://streamlinehq.com
  </desc>
  <path fill="#333333" fill-opacity=".6" d="M12.8424 18.26585c0 -3.01205 2.4418 -5.45385 5.45385 -5.45385s5.45385 2.4418 5.45385 5.45385 -2.4418 5.45385 -5.45385 5.45385 -5.45385 -2.4418 -5.45385 -5.45385Z" stroke-width="0.25"></path>
  <path fill="#333333" fill-opacity=".3" d="M12.8424 5.734125c0 -3.012075 2.4418 -5.4538525 5.45385 -5.4538525S23.7501 2.72205 23.7501 5.734125v4.90845c0 0.301275 -0.244225 0.545375 -0.545375 0.545375H13.3878c-0.301175 0 -0.5454 -0.2441 -0.5454 -0.545375V5.734125Z" stroke-width="0.25"></path>
  <path fill="#333333" d="M11.1577 18.26585c0 3.01205 -2.441775 5.45385 -5.45385 5.45385C2.691775 23.7197 0.25 21.2779 0.25 18.26585V13.3574c0 -0.301275 0.2441775 -0.5454 0.545385 -0.5454H10.612325c0.30115 0 0.545375 0.244125 0.545375 0.5454v4.90845Z" stroke-width="0.25"></path>
</svg>